<?xml version="1.0" encoding="UTF-8"?>
<svg id="Calque_2" data-name="Calque 2" xmlns="http://www.w3.org/2000/svg" viewBox="0 0 412.95 212.68">
  <defs>
    <style>
      .cls-1 {
        fill: #6d2139;
      }
    </style>
  </defs>
  <g id="Calque_1-2" data-name="Calque 1">
    <g>
      <g>
        <g>
          <path class="cls-1" d="M331.08,183.57c-.96,4.22,1.81,36.02-5.38,27.75,1.3-19.36-.75-40.89,3.69-59.26,3.69,8.95,1.86,22.17,1.69,31.51Z"/>
          <path class="cls-1" d="M290.57,166.71c-.46-.03-1.05-.99-1.56-5.09.02-5.04.41-12.38,2.29-20.99,2.72-12.45,7.77-24.02,8.93-23.68.35.1.43,1.31-3.15,21.42"/>
          <path class="cls-1" d="M295,51.27c-12.83,1.91-5.29-26.76-.98-17.51-3.73,10.13-.83,17.2,8.66,7.67,7.93.41-2.98,10.77-7.69,9.84Z"/>
          <path class="cls-1" d="M286.2,154.19c.09,3.23-5,3.35-4.98.05-.18-3.5,5.08-3.48,4.98-.05Z"/>
          <path class="cls-1" d="M292.63,121.97c.08,2.79-4.15,2.75-4.26.09-.09-2.79,4.24-2.96,4.26-.09Z"/>
          <path class="cls-1" d="M123.24,144.28c-6.94-15.13-92.72,25.94-102.75,35.82,25.57-9.44,52.67-23.81,80.32-30.94,36.38-9.64-56.07,32.33-72.08,30.85-18.44-.35-1.02,21.71,8.93,22.93,26.38,1.84,53.47-10.03,75.78-23.41,12.12-6.22,12.8-25.24,9.8-35.26Z"/>
          <path class="cls-1" d="M372.6,65.42c.89-59.1-57.21-88.59-99.19-43.58-9.91,4.81-37.44-11.41-30.22,10.02,3.31,9.84,15.85,12.09,21.1,18.47-12.3,22.53,9.64,57.9,35.07,45.77-15.75-2.71-33.76-9.91-33.9-29.01,6.67.3,18.58,2.78,25.59-3.39-2.39-3.13-11.94,1.02-17.45-.84-.82-.28-1.66-.49-2.52-.61-11.78-1.67,7.54-15.93-8.72-19.76-5.05-2.67-20.43-12.2-13.83-17.45,11.34,1.95,25.54,6.67,34.54-3.33,24.46-35.42,41.37,34.66,38.07,53.8-.46,11.74-6.88,24.56-11.91,33.75-18.33-6.66-40.67-13.13-59.47-5.38-19.88,9.03-31.27,68.32-57.09,38.17-2.29-5.39-8.18-12.08-8.38-17.09,11.78-5.81,24.81-7.45,37.29-11.01,11.52-2.11,12.13-17.03-1.28-14.26-17.75,3.15-35.6,9.76-49.43,21.57-13.42-4.9-37.03.97-43.77,16.96-5.43,12.76,11.51,34.95,17.24,14.03-.64-3.57-2.22-19.18,2.85-10.03,1.06,2.81,3.45,16.62,6.75,8.76-.8-2.62-3.7-17.03.2-14.58,6.86,22.36,6.46,16.11,7.32-2.43,2.4-5.84,6.08,12.5,5.51,15.43-.97,16.67-23.14,13.91-34.11,16.41,7.48,8.31,24.72-1.1,32.15-1.63,5.02,25.3,30.35,45.32,56.25,36.84,12.34-1.37,16.54-17.51,15.35-1.34,8.5,7.39,4.3-15.88,8.43-17.01,13.85,10.69,26.51,15,34.88,16.95,16.07,3.73,37.48,3.69,38.17.19.06-.32-.06-.62-.19-.85-8.56.23-20.07-1-33.57-3.58-10.97-2.09-21.57-5.63-31.31-12.22-15.38-4.71-2.21-21.26-1.56-32.39.1-4.92,10.18-32.64,4.1-21.04-10.14,18.35-11.34,40.53-22.16,57.97-23.03,23.08-62.19,1.22-65.25-27.64,9.41-6.87.52-44.39-10.91-28.62-.92,3.64-6.37-4.21-8.13,4-18.37-4.23-2.76,18.4-12.2,20.84-8.24-1.72-8.33-18.94-1.27-23.26,8.1-5.64,24.74-15.81,32.55-5.69,3.92,11.2,5.96-.16,10.86,1.63,3.01,5.65,5.87,11.39,9.23,16.84,33.38,38.34,43.47-34.03,70.44-39.65,16.52-1.43,33.94,1.64,49.11,8.3,1.13,5.54,3.52,15.8,11.83,10.53,4.35-4.61,4.34-5.46,10.1-1.59,30.71,14.84,12.33,59.64,25.74,81.11,3.45-23.93,4.14-72.14-21.11-84.55-4.77-2.47-10.51-2.93-7.83-9.42,23.1,7.65,24.48-13.12.36-17.87,36.77-31.03,47.97,27.6,45.64-27.25Z"/>
        </g>
        <g>
          <path class="cls-1" d="M61.28,88.82c-.65,5.42-.62,10.91-.74,16.36-.06,2.79-.13,5.57-.19,8.36s-.26,5.4-.18,8.08c.09,2.96,2.55,3.78,5.04,4.39,2.58.63,5.2.73,7.84.83,5.47.21,10.93.52,16.38.94,2.77.21,5.53.45,8.3.72,2.12.21,5.35,1.22,7-.63.72-.8.9-1.92,1.06-2.94.21-1.32.35-2.66.51-3.99.34-2.79.68-5.57,1-8.36.62-5.49,1.17-11,1.51-16.51.08-1.32.16-2.64.21-3.95s0-2.6-1-3.55c-.81-.77-2-1.13-3.03-1.48-1.29-.43-2.62-.74-3.97-.98-5.93-1.04-12.07-1.08-18.07-1.45s-12.46-.78-18.69-1.17c-2.41-.15-2.4,3.6,0,3.75,9.89.62,19.78,1.21,29.67,1.85,2.27.15,4.53.32,6.77.76,1.11.22,2.22.5,3.29.85.4.13.99.23,1.32.51.28.24,0-.19-.01.21s-.03.79-.05,1.18c-.22,4.95-.63,9.88-1.14,14.8-.5,4.93-1.1,9.84-1.71,14.76-.07.59-.13,1.18-.22,1.76-.05.32-.36,1.15-.28,1.41.12.36.37-.26.4-.17,0,0-.59-.03-.67-.04-.65-.05-1.3-.14-1.95-.2-2.52-.26-5.04-.49-7.56-.7-4.88-.41-9.77-.73-14.67-.97-2.5-.12-5.01-.15-7.51-.31-1.04-.07-2.06-.2-3.08-.42-.51-.11-1.03-.24-1.53-.39-.13-.04-1.49-.43-1.41-.33-.22-.31.03-1.53.03-1.89.01-.66.03-1.31.04-1.97.03-1.48.07-2.95.1-4.43.06-2.71.12-5.41.18-8.12.13-5.53.09-11.1.75-16.6.12-1.01-.95-1.88-1.88-1.88-1.11,0-1.75.86-1.88,1.88h0Z"/>
          <path class="cls-1" d="M72.79,114.87c1.84-3.21,2.8-6.77,3.73-10.32.41-1.55.75-3.16,1.35-4.66.43-1.08,1.18-2.4,2.34-2.82.16-.05.32-.09.48-.11.61.06.48-.13-.37-.55-.08.09.31,1.2.34,1.36.18.8.32,1.61.45,2.41.25,1.69.39,3.41.56,5.11.37,3.72.9,7.34,2.38,10.8.4.93,1.77,1.14,2.57.67.96-.56,1.07-1.63.67-2.57-2.49-5.8-1.63-12.43-3.26-18.45-.45-1.67-1.55-2.62-3.34-2.54-1.65.08-3.12.84-4.25,2.02-2.02,2.1-2.69,5.07-3.4,7.81-.89,3.41-1.72,6.86-3.49,9.93-1.2,2.1,2.04,3.99,3.24,1.89h0Z"/>
          <path class="cls-1" d="M74.8,109.09c2.83.15,5.66.24,8.5.27.98.01,1.92-.87,1.88-1.88s-.82-1.86-1.88-1.88c-2.83-.03-5.67-.13-8.5-.27-.98-.05-1.92.9-1.88,1.88.05,1.06.82,1.82,1.88,1.88h0Z"/>
          <path class="cls-1" d="M91.98,104.56c.2,3.73-.87,7.41-.47,11.13.1.97.79,1.92,1.88,1.88.93-.04,1.99-.83,1.88-1.88-.4-3.73.67-7.41.47-11.13-.05-.98-.83-1.92-1.88-1.88-.97.04-1.93.83-1.88,1.88h0Z"/>
        </g>
        <g>
          <path class="cls-1" d="M0,122.35c.25,6.61.66,13.21,1.23,19.8.28,3.21.59,6.42.94,9.63.3,2.71.37,6.1,3.89,6.28,1.55.08,3.18-.16,4.72-.26,1.66-.1,3.31-.21,4.97-.31,3.31-.21,6.63-.41,9.94-.62,3.23-.2,6.46-.4,9.7-.6,2.68-.17,5.35-.43,7-2.83,1.57-2.28,1.78-5.53,1.81-8.21.02-1.56-.11-3.12-.3-4.67-.28-2.27-.56-4.53-.84-6.8-.39-3.13-.77-6.27-1.16-9.4-.23-1.84-.31-3.82-.74-5.62-.74-3.05-3.5-4.12-6.33-4.42-3.46-.37-6.99-.44-10.47-.48-7.35-.09-14.7.32-21.99,1.21-1.01.12-1.88.77-1.88,1.88,0,.92.86,2,1.88,1.88,5.84-.71,11.71-1.12,17.58-1.21,2.94-.04,5.88,0,8.82.11,1.47.06,2.94.14,4.4.24,1.05.07,2.2.08,3.19.47,1.54.6,1.43,3.04,1.6,4.48l.98,7.95c.6,4.86,1.64,9.95,1.49,14.86-.06,1.82-.02,5.33-1.93,6.34-.92.48-2.12.42-3.13.48-1.57.1-3.15.2-4.72.29-5.97.37-11.93.74-17.9,1.11-1.66.1-3.31.21-4.97.31-.33.02-.66.05-.99.06-.19.02-.37.02-.56.02-.28-.05-.26.03.05.22-.19-.65-.22-1.34-.3-2.01-.37-3.29-.69-6.58-.98-9.87-.59-6.75-1.01-13.52-1.27-20.29-.09-2.41-3.84-2.42-3.75,0H0Z"/>
          <path class="cls-1" d="M10.25,125.15c.07,3.42,1.38,6.73,1.89,10.1.52,3.38.69,6.8.89,10.21.14,2.4,3.89,2.41,3.75,0-.2-3.49-.43-6.98-.92-10.45-.23-1.65-.53-3.28-.92-4.9s-.91-3.26-.95-4.97c-.05-2.41-3.8-2.42-3.75,0h0Z"/>
          <path class="cls-1" d="M12.75,126.15c1.08-.23,1.87-.33,3.02-.36.59-.02,1.18,0,1.77.03.48.03.95.07,1.27.12.27.04.53.09.8.15.13.03.26.07.39.11.22.08.25.09.11.04.08.04.62.41.32.17.13.11.25.22.36.35.08.08.15.17.22.25-.12-.16-.12-.14,0,.03.11.2.24.39.35.59.03.06.32.69.18.34.08.19.15.38.21.57.17.48.32.97.42,1.47.05.24.05.29.03.15.01.14.02.29.01.44-.02.23-.02.24,0,.05-.02.09-.04.18-.07.27-.04.13-.03.12.02-.02-.12.18-.12.21,0,.07-.16.15-.17.17-.03.08-.11.07-.22.13-.34.19.24-.1-.41.1-.48.11-.25.06-.5.12-.75.17-2.3.51-4.61.91-6.93,1.31-.97.17-1.6,1.41-1.31,2.31.34,1.04,1.27,1.49,2.31,1.31,2.13-.37,4.26-.73,6.37-1.19,1.05-.23,2.21-.41,3.11-1.04,1.02-.71,1.63-1.78,1.79-3,.26-1.94-.51-4.19-1.51-5.85-.53-.88-1.23-1.65-2.1-2.2s-1.91-.77-2.93-.91c-2.55-.35-5.09-.26-7.61.27-.96.2-1.61,1.38-1.31,2.31.33,1.02,1.28,1.52,2.31,1.31h0Z"/>
          <path class="cls-1" d="M34.72,136.19c.06-2.75-3.03-4.03-5.37-3.74-1.46.18-2.68.8-3.54,2-.84,1.17-.88,2.67-.29,3.95.99,2.13,3.49,3.01,5.44,4,.22.11.45.23.66.36.05.03.61.43.39.24.09.08.18.17.27.25.03.03.25.27.07.04.07.09.13.2.19.3.17.27,0-.05.05.13.01.05.07.41.05.18-.02-.28,0,.3,0,.02s-.07.27,0,.03-.16.24,0,.03-.2.2,0,0c.15-.14-.03.02-.07.04-.09.05-.19.11-.29.15.38-.16-.13.01-.18.03-.11.03-.22.05-.33.07-.37.08.18,0-.09.01-.3,0-.6.04-.9.04s-.6-.01-.9-.04c-.04,0-.44-.05-.25-.02.17.02-.3-.06-.34-.06-1.31-.26-2.1-.59-3.22-1.32-.82-.54-2.11-.19-2.57.67-.5.94-.2,1.99.67,2.57,1.89,1.24,4.14,1.92,6.4,1.96,2.24.04,5.05-.62,5.65-3.14s-1.2-4.63-3.33-5.73c-.93-.48-1.9-.88-2.8-1.41-.24-.14-.47-.29-.69-.44,0,0-.23-.19-.1-.07.15.13-.13-.12-.16-.15-.09-.08-.17-.17-.25-.26-.14-.17,0,0,.02.02-.06-.09-.13-.2-.17-.31.07.15.08.16.05.04-.03-.11-.03-.11,0-.01.07,0-.08.41,0,.15.04-.13.06-.37.03-.12,0-.05.21-.3,0-.05.03-.04.36-.33.2-.21-.15.11.09-.05.1-.05.44-.23-.18.01.29-.11,0,0,.31-.07.15-.04-.16.03.3-.02.35-.02.14,0,.27,0,.41.01l.2.02c-.17-.02-.19-.02-.07,0,.08.02.15.04.23.06.43.11-.24-.17.15.05.07.04.14.09.2.12.19.09-.21-.19.04.04-.24-.23-.08-.15-.04-.03-.04-.11-.1-.62-.11-.25-.02.98.88,1.92,1.88,1.88s1.85-.82,1.88-1.88h0Z"/>
        </g>
        <path class="cls-1" d="M5.4,66.12c.52,2.43.34,4.92.13,7.38-.22,2.55-.39,5.08-.31,7.64.08,2.6.34,5.18.67,7.76.29,2.33.34,5.02,1.16,7.23,1.67,4.51,7.85,4.1,11.76,4.15,5.11.07,10.22-.23,15.34-.17,2.62.03,5.23.11,7.85.23,2.08.1,4.86.81,6.49-.88,1.46-1.52,1.27-3.94,1.32-5.87.08-2.65.16-5.29.24-7.94.16-5.21.31-10.42.47-15.63.06-2.16.72-5.2-1.45-6.57-1.82-1.15-4.39-.61-6.42-.53-11.79.44-23.61.06-35.35-1.09-1.01-.1-1.88.93-1.88,1.88,0,1.1.86,1.78,1.88,1.88,9.36.92,18.77,1.35,28.17,1.26,2.31-.02,4.62-.07,6.93-.16,1.15-.04,2.31-.11,3.46-.15.34-.01.68-.01,1.02.03.05,0,.13.03.17.05-.17-.29-.24-.3-.19-.01,0,.15,0,.3,0,.45-.11,4.71-.28,9.43-.43,14.14-.14,4.71-.26,9.43-.43,14.14-.02.6-.08,1.09-.3,1.64.24-.58.35-.02.07-.18-.1-.06-.48-.02-.6-.03-.65-.04-1.31-.07-1.96-.11-2.37-.12-4.74-.21-7.11-.26-4.66-.1-9.31-.02-13.96.11-2.22.06-4.45.04-6.67-.1-1.35-.09-4.08.07-4.84-1.37-.48-.91-.46-2.25-.6-3.25-.17-1.2-.33-2.41-.48-3.61-.31-2.58-.55-5.17-.59-7.76-.1-5.1,1.15-10.24.06-15.29-.51-2.36-4.12-1.36-3.62,1h0Z"/>
        <g>
          <path class="cls-1" d="M32.91,80.07c-1.73-.56-3.52-.89-5.25-.13-1.48.66-2.47,2.15-2.9,3.67-.46,1.62-.33,3.58.68,4.99.97,1.37,2.38,2.25,3.99,2.7,1.83.51,3.82.54,5.7.71.98.09,1.92-.92,1.88-1.88-.05-1.09-.83-1.78-1.88-1.88-.86-.08-1.72-.15-2.58-.23-.21-.02-.42-.04-.63-.06-.1-.01-.21-.02-.31-.04.24.03.25.04.03,0-.41-.07-.82-.14-1.22-.26-.19-.05-.38-.12-.57-.18-.19-.07-.16-.06.09.04-.08-.03-.16-.07-.23-.11-.15-.08-.3-.16-.45-.25-.07-.05-.14-.09-.21-.14-.16-.12-.14-.1.07.06-.1-.01-.3-.27-.37-.34-.06-.06-.12-.12-.17-.19.16.22.18.24.06.08-.05-.09-.28-.35-.26-.45.09.24.1.26.03.07-.02-.06-.04-.13-.06-.2-.04-.13-.12-.34-.1-.47.03.27.04.3.02.09,0-.09,0-.18,0-.28,0-.11-.04-.73-.01-.2,0-.17.07-.38.12-.55.03-.1.08-.45.17-.52-.11.25-.12.29-.04.1.04-.08.08-.15.12-.22.04-.07.19-.41.27-.43-.17.21-.19.24-.06.09.06-.06.11-.12.17-.18.06-.06.12-.11.18-.17-.22.16-.25.19-.08.07.07-.04.14-.09.22-.12.17-.08.15-.07-.07.03.09-.03.18-.06.27-.08.21-.04.18-.04-.08,0,.15-.06.41-.02.57-.02.1,0,.19.01.29.02-.26-.04-.28-.04-.07,0,.19.04.38.08.58.12.38.09.75.21,1.13.33.93.3,2.09-.35,2.31-1.31.23-1.03-.31-1.98-1.31-2.31h0Z"/>
          <path class="cls-1" d="M33.14,73.52c-.9,5.33-.91,10.67-.03,16,.17,1,1.4,1.56,2.31,1.31,1.06-.29,1.48-1.3,1.31-2.31-.76-4.62-.75-9.4.03-14.01.17-1-.26-2.02-1.31-2.31-.9-.25-2.14.31-2.31,1.31h0Z"/>
        </g>
        <path class="cls-1" d="M16.57,71.61c.25,6.24.23,12.48-.05,18.71-.11,2.41,3.64,2.41,3.75,0,.28-6.23.3-12.48.05-18.71-.09-2.41-3.85-2.42-3.75,0h0Z"/>
      </g>
      <path class="cls-1" d="M366.36,83.54c5.34-2.96,12.25-3.13,18.21-2.9,6.29.25,12.66,4.53,12.99,11.28.1,2.08-.76,4.02-1.69,5.83-1.04,2.02-2.29,3.91-3.54,5.8-1.13,1.71.4,3.61,2.16,3.76,3.07.27,5.87.96,8.31,2.71,1.96,1.41,3.49,3.99,4.33,6.63,1.09,3.42,1.24,6.84-.27,10.23-.39.88-.96,1.67-1.5,2.46-.05.08-.11.15-.17.23-.18.26.33-.4.12-.15-.12.14-.24.29-.36.43-.34.39-.71.76-1.1,1.11-.09.08-.8.63-.4.34-.29.21-.58.41-.88.59-.63.39-1.39.8-2.01,1.06-1.9.81-4.2,1.33-6.31,1.61-1.82.24-3.2,1.96-2.16,3.76,2.43,4.23,1.77,9.87-1.31,13.69-3.28,4.05-8.73,4.9-13.39,2.97-2.74-1.14-4.93-3.17-6.22-5.83s-5.4-.76-4.57,1.93c.77,2.49-1.32,4.88-3.58,5.77-3.6,1.42-7.88-.06-11.36-1.11-3.09-.93-4.41,3.9-1.33,4.82,5.04,1.51,10.78,2.97,15.72.36,3.95-2.08,6.76-6.71,5.37-11.18-1.52.64-3.05,1.28-4.57,1.93,3.05,6.3,10.47,9.99,17.34,9.19s12.8-6.51,14.05-13.6c.69-3.94.18-7.96-1.83-11.46l-2.16,3.76c6.73-.87,13.23-3.28,16.61-9.53,2.22-4.12,2.64-8.96,1.45-13.44-.95-3.59-2.63-7.17-5.46-9.67-3.46-3.06-7.86-4.21-12.37-4.61.72,1.25,1.44,2.51,2.16,3.76,2.46-3.72,5.38-7.92,5.87-12.47.44-4.16-1.22-8.39-3.86-11.54-5.39-6.46-14.04-6.91-21.82-6.25-4.47.38-9.03,1.2-13,3.4-2.81,1.56-.3,5.88,2.52,4.32h0Z"/>
      <path class="cls-1" d="M305.81,35.8c-.08,0-.17,0-.25-.02-.82-.14-1.37-.91-1.23-1.73.69-4.03-1.96-7.36-4.37-9.47-.65,1.18-1.54,2.26-2.67,2.87-1.27.67-2.63.65-3.96-.08-.92-.5-1.56-1.54-1.82-2.93-.22-1.21-.14-2.87.76-3.93,1.42-1.67,3.69-1.87,6.18-.65,0-.03,0-.07.01-.1.21-2.29.03-6.43-3.57-8.38-.73-.39-1-1.31-.6-2.03.4-.73,1.31-1,2.03-.6,3.74,2.03,5.61,6.14,5.13,11.3-.04.41-.14.98-.32,1.61,4.75,3.81,6.92,8.36,6.15,12.91-.12.73-.76,1.25-1.48,1.25ZM295.47,22.08c-.36,0-.68.1-.91.37-.3.41-.14,1.97.25,2.31.49.27.81.18,1.08.04.61-.32,1.18-1.11,1.64-2.02-.59-.33-1.39-.69-2.06-.69Z"/>
    </g>
  </g>
</svg>