<?xml version="1.0" encoding="UTF-8"?>
<svg id="Calque_2" data-name="Calque 2" xmlns="http://www.w3.org/2000/svg" viewBox="0 0 234.03 204.08">
  <g id="Calque_1-2" data-name="Calque 1">
    <g>
      <g>
        <path d="M61.54,98.34c0,1.67-.57,3.08-1.7,4.21-1.13,1.13-2.53,1.7-4.21,1.7-3.05.2-5.9.32-8.56.37-2.66.05-5.26.1-7.82.15-2.56.05-5.17.07-7.82.07s-5.51-.05-8.56-.15c-5.71.1-10.13.15-13.28.15s-5.44-.61-6.86-1.85c-1.43-1.23-2.24-3.34-2.43-6.35C.1,93.64,0,89.19,0,83.29c.39-5.21.59-10.3.59-15.27s-.02-9.93-.07-14.9c-.05-4.97-.12-9.96-.22-14.98-.1-5.02-.05-10.13.15-15.35.2-4.92.24-8.78.15-11.59-.1-2.8.32-4.92,1.25-6.35.93-1.42,2.68-2.36,5.24-2.8,2.56-.44,6.54-.66,11.95-.66,2.66.59,4.43,1.72,5.31,3.39.88,1.67,1.35,3.59,1.4,5.75.05,2.17-.05,4.45-.29,6.86-.25,2.41-.17,4.65.22,6.71.29,4.23.47,8.36.52,12.4.05,4.03.05,8.04,0,12.03-.05,3.98-.1,7.97-.15,11.95-.05,3.98.02,8.14.22,12.47.39,2.56,1.4,4.23,3.03,5.02,1.62.79,3.52,1.18,5.68,1.18,1.57,0,3.17-.1,4.8-.3,1.62-.2,3.12-.24,4.5-.15,1.38,0,2.48.02,3.32.07.83.05,1.6.12,2.29.22.69.1,1.45.17,2.29.22.83.05,1.99.07,3.47.07,2.36.29,3.96,1.13,4.79,2.51.84,1.38,1.3,3.03,1.4,4.95.1,1.92,0,3.91-.29,5.98-.29,2.07-.29,3.94,0,5.61Z"/>
        <path d="M105.66,78.56c4.23.39,7.38-.27,9.45-1.99,2.07-1.72,3.49-3.98,4.28-6.79.79-2.8,1.13-5.9,1.03-9.3s-.25-6.62-.44-9.67c.1-2.65.17-5.16.22-7.52.05-2.36.08-4.65.08-6.86s-.03-4.5-.08-6.86c-.05-2.36-.17-4.87-.37-7.52-.29-5.41-.39-9.54-.29-12.4.1-2.85.81-4.92,2.14-6.2,1.33-1.28,3.44-1.97,6.35-2.07,2.9-.1,7.01-.1,12.32,0,2.66.39,4.4,1.35,5.24,2.88.84,1.53,1.28,3.3,1.33,5.31.05,2.02-.07,4.13-.37,6.35-.29,2.22-.35,4.26-.15,6.13,0,1.77.02,3.2.07,4.28.05,1.08.1,2.07.15,2.95.05.89.1,1.87.15,2.95.05,1.08.08,2.51.08,4.28-.39,5.31-.64,10.09-.74,14.31-.1,4.23-.05,9,.15,14.31,0,5.41-1.06,10.6-3.17,15.57-2.12,4.97-5.02,9.25-8.71,12.84-3.69,3.59-7.99,6.37-12.91,8.34-4.92,1.97-10.18,2.66-15.79,2.07-6.69-.1-12.42-1.08-17.19-2.95-4.77-1.87-8.76-4.43-11.95-7.67-3.2-3.25-5.71-7.03-7.52-11.36-1.82-4.33-3.1-8.95-3.84-13.87-.74-4.92-1.08-10.08-1.03-15.49.05-5.41.32-10.77.81-16.09.1-1.18.07-2.88-.07-5.09-.15-2.21-.27-4.62-.37-7.23-.1-2.61-.15-5.26-.15-7.97s.22-5.14.66-7.3c.44-2.16,1.13-3.89,2.07-5.16.93-1.28,2.24-1.82,3.91-1.62,4.92-.59,8.65-.89,11.22-.89s4.43.32,5.61.96c1.18.64,2.01,1.75,2.51,3.32.49,1.58.79,3.71.89,6.42.1,2.71.24,6.08.44,10.11.1,3.84.1,7.52,0,11.07-.1,3.54-.2,7.06-.29,10.55-.1,3.49-.15,7.01-.15,10.55s.15,7.18.44,10.92c-.29,4.72.93,8.22,3.69,10.48,2.75,2.26,6.2,3.25,10.33,2.95Z"/>
        <path d="M161.44.21c1.08.1,2.31.07,3.69-.07,1.38-.15,2.68-.17,3.91-.08,1.23.1,2.26.47,3.1,1.11.83.64,1.15,1.8.96,3.47-.79,4.72-1.53,8.93-2.22,12.62-.69,3.69-1.57,7.85-2.65,12.47-.49,1.97-1.65,3.12-3.47,3.47-1.82.35-3.57.42-5.24.22-1.87.2-3.03-.96-3.47-3.47-.44-2.51-.57-5.43-.37-8.78.2-3.34.57-6.62,1.11-9.81.54-3.2.81-5.43.81-6.72.1-1.08.49-2.09,1.18-3.02.69-.93,1.57-1.4,2.66-1.4Z"/>
      </g>
      <g>
        <path d="M96.53,189.19c-.08,1.31-.02,2.77.18,4.37s.25,3.12.12,4.55c-.12,1.44-.55,2.63-1.29,3.57-.74.94-2.09,1.5-4.06,1.66-14.61.33-28.99.39-43.14.18-14.16-.21-28.54-.23-43.14-.06-1.64-.08-2.81-.53-3.51-1.35s-1.17-1.83-1.42-3.02c-.25-1.19-.33-2.46-.25-3.82.08-1.35.08-2.6,0-3.75,0-2.13.33-4.02.98-5.66.66-1.64,1.5-3.18,2.52-4.62,1.03-1.43,2.15-2.85,3.39-4.25,1.23-1.39,2.42-2.87,3.57-4.43,2.05-2.46,3.96-4.92,5.72-7.39,1.76-2.46,3.49-4.92,5.17-7.38s3.43-4.9,5.23-7.32c1.8-2.42,3.73-4.86,5.78-7.32,1.07-1.64,1.05-2.77-.06-3.39s-2.81-1-5.11-1.17c-2.3-.16-4.92-.23-7.88-.18-2.95.04-5.72-.06-8.31-.31-2.58-.25-4.74-.78-6.46-1.6-1.72-.82-2.5-2.17-2.34-4.06.25-1.31.31-2.79.18-4.43-.12-1.64-.1-3.18.06-4.62.16-1.43.62-2.69,1.35-3.75s2.05-1.68,3.94-1.85c2.46.08,4.76.17,6.89.25,2.13.08,4.25.12,6.34.12h6.34c2.13,0,4.43-.04,6.89-.12,2.46,0,4.76-.02,6.89-.06,2.13-.04,4.25-.08,6.34-.12,2.09-.04,4.2-.08,6.34-.12,2.13-.04,4.43-.1,6.89-.18,1.64.08,2.83.55,3.57,1.42s1.21,1.91,1.42,3.14c.2,1.23.29,2.54.25,3.94-.04,1.4-.06,2.67-.06,3.82-.17,2.05-.64,3.9-1.42,5.54-.78,1.64-1.7,3.18-2.77,4.62s-2.2,2.85-3.38,4.25c-1.19,1.4-2.36,2.91-3.51,4.55-4.02,5.17-7.88,10.07-11.57,14.71-3.69,4.64-7.47,9.62-11.32,14.96-1.07,1.48-1.13,2.48-.18,3.01.94.54,2.28.84,4,.92,1.72.08,3.55.06,5.48-.06,1.93-.12,3.3-.06,4.12.18,6.07.16,11.83.27,17.29.31,5.46.04,11.22.23,17.29.55,1.48.25,3.12.31,4.92.18,1.8-.12,3.53-.1,5.17.06,1.64.17,3.08.62,4.31,1.35,1.23.74,1.97,2.13,2.22,4.18ZM79.55,172.82c-2.05-.25-3.43-.94-4.12-2.09-.7-1.15-1.11-2.52-1.23-4.12-.12-1.6-.11-3.28.06-5.05.16-1.76.12-3.38-.12-4.86.41-5.91.62-11.55.62-16.93s-.04-11.02-.12-16.92c.33-2.22,1.13-3.65,2.4-4.31,1.27-.66,2.77-.98,4.49-.98s3.34.11,5.11.31c1.76.21,3.38.23,4.86.06,1.97.25,3.3.97,4,2.15.7,1.19,1.09,2.58,1.17,4.18.08,1.6,0,3.28-.25,5.05-.25,1.76-.25,3.39,0,4.86,0,1.4.02,2.5.06,3.32.04.82.1,1.6.18,2.34.08.74.14,1.52.18,2.34.04.82.06,1.93.06,3.32-.41,3.28-.6,6.26-.55,8.92.04,2.67.12,5.05.25,7.14.12,2.09.18,3.88.18,5.36s-.29,2.69-.86,3.63c-.57.94-1.52,1.64-2.83,2.09-1.31.45-3.2.68-5.66.68-1.07,0-2.24-.04-3.51-.12-1.27-.08-2.73-.21-4.37-.37Z"/>
        <path d="M130.62,161.25c-.49-1.07-.94-1.6-1.35-1.6-.49,0-.88.92-1.17,2.77-.29,1.85-.47,4.17-.55,6.95-.08,2.79-.1,5.83-.06,9.11.04,3.28.08,6.36.12,9.23.04,2.87.1,5.34.18,7.38.08,2.05.12,3.2.12,3.45-.41,2.05-1.19,3.41-2.34,4.06-1.15.66-2.5.98-4.06.98-1.72,0-3.57-.23-5.54-.68s-3.78-.64-5.41-.55c-2.22-.41-3.69-1.25-4.43-2.52-.74-1.27-1.11-2.75-1.11-4.43s.14-3.47.43-5.36c.29-1.89.35-3.61.18-5.17.16-10.59.37-20.9.62-30.96.25-10.05.37-20.37.37-30.96.41-2.13,1.27-3.59,2.59-4.37,1.31-.78,2.83-1.21,4.55-1.29,1.72-.08,3.55-.02,5.48.18,1.93.21,3.67.18,5.23-.06,2.13.08,3.82.64,5.05,1.66,1.23,1.03,2.25,2.28,3.08,3.75.82,1.48,1.56,3.1,2.22,4.86.66,1.77,1.43,3.39,2.34,4.86.66,1.31,1.21,2.36,1.66,3.14.45.78.86,1.5,1.23,2.15.37.66.76,1.35,1.17,2.09.41.74.98,1.81,1.72,3.2,2.13,4.35,3.75,7.45,4.86,9.29,1.11,1.85,1.91,2.77,2.4,2.77.33,0,.55-.45.68-1.35.12-.9.18-2.11.18-3.63s-.02-3.32-.06-5.42c-.04-2.09-.02-4.29.06-6.58.16-4.51.12-8.14-.12-10.89-.25-2.75-.04-4.86.62-6.34.66-1.48,2.15-2.42,4.49-2.83,2.34-.41,6.17-.53,11.51-.37,1.97.25,3.28,1.05,3.94,2.4.66,1.35,1.05,2.93,1.17,4.74.12,1.81.1,3.69-.06,5.66-.16,1.97-.08,3.65.25,5.05.16,3.37.2,6.61.12,9.72-.08,3.12-.18,6.24-.31,9.35-.12,3.12-.18,6.24-.18,9.35s.12,6.36.37,9.72c-.41,3.86-.55,7.3-.43,10.34.12,3.04.27,5.68.43,7.94.16,2.26.26,4.14.31,5.66.04,1.52-.23,2.75-.8,3.69-.57.94-1.56,1.62-2.95,2.03-1.4.41-3.41.62-6.03.62-2.22,0-5.05-.12-8.49-.37-2.3-.25-4.08-.96-5.35-2.15-1.27-1.19-2.32-2.63-3.14-4.31-.82-1.68-1.56-3.47-2.22-5.35-.66-1.89-1.48-3.65-2.46-5.29-1.15-2.38-2.2-4.57-3.14-6.59-.94-2.01-1.85-4-2.71-5.97s-1.7-4-2.52-6.09-1.72-4.33-2.71-6.71Z"/>
        <path d="M233.89,197.56c0,1.4-.55,2.61-1.66,3.63-1.11,1.03-2.36,1.54-3.75,1.54-2.54.08-4.92.18-7.14.31-2.22.12-4.39.21-6.52.25-2.14.04-4.31.11-6.52.18-2.22.08-4.6.12-7.14.12-4.68,0-8.35.02-11.02.06-2.67.04-4.61-.41-5.85-1.35-1.23-.94-1.91-2.65-2.03-5.11-.12-2.46.02-6.2.43-11.2,0-8.62-.1-17.01-.31-25.17-.21-8.16-.06-16.6.43-25.29-.57-5.09-.8-8.84-.68-11.26.12-2.42.82-4.08,2.09-4.98,1.27-.9,3.26-1.33,5.97-1.29,2.71.04,6.36-.06,10.95-.31,2.54.16,4.92.29,7.14.37,2.21.08,4.39.12,6.52.12s4.31-.04,6.52-.12,4.59-.16,7.14-.25c1.72.17,2.93.76,3.63,1.79.7,1.03,1.15,2.22,1.35,3.57.2,1.35.27,2.81.18,4.37-.08,1.56-.04,2.95.12,4.19-.08,1.97-.86,3.37-2.34,4.18-1.48.82-3.28,1.35-5.41,1.6-2.14.25-4.43.37-6.89.37s-4.76.12-6.89.37c-2.13.25-3.94.8-5.42,1.66-1.48.86-2.3,2.28-2.46,4.25-.16,2.71.66,4.45,2.46,5.23,1.8.78,4.02,1.17,6.65,1.17,2.38,0,4.78-.12,7.2-.37,2.42-.25,4.45-.21,6.09.12,2.13.25,3.55.94,4.25,2.09.7,1.15,1.07,2.52,1.11,4.12.04,1.6-.08,3.26-.37,4.98-.29,1.72-.39,3.32-.31,4.8-.16,2.13-.98,3.53-2.46,4.18-1.48.66-3.24.98-5.29.98-1.72,0-3.53-.12-5.41-.37-1.89-.25-3.69-.37-5.42-.37-2.13,0-4,.37-5.6,1.11-1.6.74-2.48,2.3-2.65,4.68-.16,2.38.39,3.94,1.66,4.68,1.27.74,2.81,1.11,4.61,1.11,1.4,0,2.81-.1,4.25-.31,1.43-.2,2.73-.31,3.88-.31s2.07-.02,2.77-.06c.7-.04,1.33-.08,1.91-.12.57-.04,1.21-.08,1.91-.12.7-.04,1.66-.06,2.89-.06,2.05.25,3.45.94,4.18,2.09.74,1.15,1.17,2.54,1.29,4.18.12,1.64.1,3.34-.06,5.11-.16,1.77-.16,3.39,0,4.86Z"/>
      </g>
    </g>
  </g>
</svg>